<svg width="699" height="385" viewBox="0 0 699 385" fill="none" xmlns="http://www.w3.org/2000/svg">
<path d="M3.79 131.7C3.79 99.2999 50.29 98.9999 54.49 107.7C59.0828 104.555 64.5235 102.881 70.09 102.9C71.59 102.9 73.09 103.2 74.29 103.2C76.5304 96.3652 80.6905 90.3197 86.2737 85.7853C91.8569 81.2509 98.6272 78.4193 105.776 77.6285C112.925 76.8377 120.151 78.1211 126.59 81.3256C133.029 84.5301 138.41 89.5201 142.09 95.6999C144.675 95.3394 147.28 95.139 149.89 95.0999C158.101 95.1582 166.159 97.3277 173.29 101.4C177.66 98.2604 182.909 96.5806 188.29 96.5999C191.885 96.689 195.437 97.3995 198.79 98.6999C202.411 94.8447 206.778 91.7662 211.626 89.6517C216.474 87.5372 221.701 86.4309 226.99 86.3999C229.5 86.4507 232.004 86.6511 234.49 86.9999C236.532 83.0289 239.627 79.6965 243.437 77.3681C247.247 75.0397 251.625 73.8053 256.09 73.7999C259.943 73.8768 263.732 74.7985 267.19 76.4999C275.171 66.086 286.693 58.9603 299.576 56.4723C312.458 53.9843 325.805 56.3068 337.09 62.9999C340.919 61.8163 344.829 60.9139 348.79 60.2999C349.638 52.3023 353.419 44.9023 359.402 39.5283C365.385 34.1543 373.148 31.1873 381.19 31.1999C384.67 31.1875 388.124 31.7971 391.39 32.9999C395.86 23.9203 402.78 16.2713 411.368 10.9171C419.956 5.56286 429.87 2.71665 439.99 2.69995C447.662 2.64534 455.254 4.25281 462.245 7.41182C469.237 10.5708 475.461 15.2065 480.49 20.9999C484.169 13.4182 490.31 7.30732 497.909 3.66435C505.508 0.0213902 514.118 -0.93855 522.333 0.941169C530.548 2.82089 537.884 7.42929 543.143 14.0144C548.402 20.5995 551.274 28.7726 551.29 37.1999C567.926 37.8945 583.682 44.8614 595.39 56.6999C601.268 54.1733 607.592 52.8473 613.99 52.7999C620.29 52.7999 673.79 52.2999 698.59 131.7V384.7H0L3.79 131.7Z" fill="#E5B020"/>
</svg>
