<svg width="694" height="180" viewBox="0 0 694 180" fill="none" xmlns="http://www.w3.org/2000/svg">
<path d="M29.1 180L1.4 179.1C-9.9 97.2 49.7 99.6 51.8 99.6C58.7 99.6 65 102.3 70.1 106.5C75.2 100.8 83.3 97.5 91.4 99.3C97.7 88.8 103.4 80.7 122 80.7C130.7 80.7 138.5 83.7 144.2 88.5C144.5 88.8 144.8 88.8 145.1 89.1C154.7 81.3 167 76.5 180.5 76.5C191 76.5 200.6 79.5 209 84.3C222.5 60.9 247.7 45 276.8 45C291.2 45 304.7 48.9 316.1 55.8C323.6 46.8 335 41.1 347.6 41.1C352.4 41.1 356.9 42 361.1 43.5C369.8 18 394.1 0 422.3 0C447.2 0 468.8 14.1 479.6 34.5C487.1 18 503.9 6.3 523.4 6.3C540.5 6.3 555.5 15.3 564.2 28.5C566.6 27.6 569 27 571.7 27C578 27 583.7 30 587.6 34.5C596.3 24.9 608.9 18.6 623 18.6C631.4 18.6 721.2 23.9 685.2 180L646.1 179.7H635.6C620.9 165.6 330.2 201.9 330.2 180C330.2 176.1 348.1 122.1 348.7 118.2C346.8 100.4 388.8 134.3 381.9 125.3C378.6 127.7 374.4 129.2 369.9 129.2C363 129.2 356.7 125.6 353.1 120.5C344.4 128.3 497.5 81.4 523.4 102.6C535.7 112.7 532.4 114.6 523.4 102.6C515.6 129.6 451.7 129.6 422 129.6C404.3 129.6 353.4 136.5 376.4 111C370.7 117 386.8 130.1 354.5 122.4C354.5 122.7 354.5 123 354.5 123.3C354.5 145.5 345.2 165.6 330.2 180H329.3H45.8H29.1Z" fill="#E9893B"/>
</svg>
